<?xml version="1.0" encoding="UTF-8"?>
<svg version="1.1" xmlns="http://www.w3.org/2000/svg" width="48" height="48">
<path d="M0 0 C1.1149585 -0.00430527 1.1149585 -0.00430527 2.25244141 -0.00869751 C3.8225989 -0.01073726 5.39278186 -0.0052135 6.96289062 0.00732422 C9.36646332 0.02338047 11.76835461 0.00747398 14.171875 -0.01171875 C15.69792038 -0.0097363 17.22396471 -0.00589259 18.75 0 C19.46881348 -0.00607269 20.18762695 -0.01214539 20.92822266 -0.0184021 C23.73792009 0.02120735 25.87890248 0.10415498 28.32666016 1.55615234 C29.8232725 4.18620282 29.76375679 6.25674514 29.7734375 9.2734375 C29.77923828 10.99820312 29.77923828 10.99820312 29.78515625 12.7578125 C29.77355469 13.95921875 29.76195312 15.160625 29.75 16.3984375 C29.76160156 17.59984375 29.77320313 18.80125 29.78515625 20.0390625 C29.78128906 21.18890625 29.77742188 22.33875 29.7734375 23.5234375 C29.77005371 24.57789062 29.76666992 25.63234375 29.76318359 26.71875 C29.375 29.3984375 29.375 29.3984375 28.32666016 31.24072266 C25.28658342 33.04408066 22.1843116 32.82588881 18.75 32.796875 C17.6350415 32.80118027 17.6350415 32.80118027 16.49755859 32.80557251 C14.9274011 32.80761226 13.35721814 32.8020885 11.78710938 32.78955078 C9.38353668 32.77349453 6.98164539 32.78940102 4.578125 32.80859375 C3.05207962 32.8066113 1.52603529 32.80276759 0 32.796875 C-0.71881348 32.80294769 -1.43762695 32.80902039 -2.17822266 32.8152771 C-4.98792009 32.77566765 -7.12890248 32.69272002 -9.57666016 31.24072266 C-11.0732725 28.61067218 -11.01375679 26.54012986 -11.0234375 23.5234375 C-11.02730469 22.37359375 -11.03117188 21.22375 -11.03515625 20.0390625 C-11.02355469 18.83765625 -11.01195312 17.63625 -11 16.3984375 C-11.01160156 15.19703125 -11.02320313 13.995625 -11.03515625 12.7578125 C-11.03128906 11.60796875 -11.02742187 10.458125 -11.0234375 9.2734375 C-11.02005371 8.21898437 -11.01666992 7.16453125 -11.01318359 6.078125 C-10.625 3.3984375 -10.625 3.3984375 -9.57666016 1.55615234 C-6.53658342 -0.24720566 -3.4343116 -0.02901381 0 0 Z " fill="#FEF7D1" transform="translate(14.625,7.6015625)"/>
<path d="M0 0 C1.1149585 -0.00430527 1.1149585 -0.00430527 2.25244141 -0.00869751 C3.8225989 -0.01073726 5.39278186 -0.0052135 6.96289062 0.00732422 C9.36646332 0.02338047 11.76835461 0.00747398 14.171875 -0.01171875 C15.69792038 -0.0097363 17.22396471 -0.00589259 18.75 0 C19.46881348 -0.00607269 20.18762695 -0.01214539 20.92822266 -0.0184021 C23.82182056 0.02239012 25.88620221 0.07641888 28.33984375 1.69287109 C30.03062484 4.4786722 29.55412463 7.23390229 29.375 10.3984375 C26.49256577 12.10964516 23.59226135 13.78795622 20.6875 15.4609375 C19.87087891 15.94626953 19.05425781 16.43160156 18.21289062 16.93164062 C17.41689453 17.38603516 16.62089844 17.84042969 15.80078125 18.30859375 C14.70890503 18.94486694 14.70890503 18.94486694 13.5949707 19.59399414 C10.77575362 20.61558441 9.21844824 20.24846914 6.375 19.3984375 C4.40623129 18.43929377 2.46815829 17.4150452 0.5625 16.3359375 C-0.41332031 15.78808594 -1.38914062 15.24023438 -2.39453125 14.67578125 C-3.13058594 14.25425781 -3.86664063 13.83273438 -4.625 13.3984375 C-4.625 12.7384375 -4.625 12.0784375 -4.625 11.3984375 C-1.16220448 11.81067506 1.28443666 12.34938236 4.375 14.0234375 C8.057244 15.71113267 9.48607771 15.35151082 13.375 14.3984375 C16.32163774 13.02378121 16.32163774 13.02378121 19.125 11.3359375 C24.18441176 8.3984375 24.18441176 8.3984375 26.375 8.3984375 C25.715 7.0784375 25.055 5.7584375 24.375 4.3984375 C20.12085377 4.37378128 15.86674502 4.35559851 11.61254883 4.34350586 C10.16429927 4.33846649 8.71605483 4.33163497 7.26782227 4.32299805 C5.19025412 4.31091503 3.11275303 4.30520539 1.03515625 4.30078125 C-0.21644287 4.29554443 -1.46804199 4.29030762 -2.75756836 4.28491211 C-5.52232294 4.06956715 -5.52232294 4.06956715 -6.625 5.3984375 C-6.85981693 7.58136524 -7.03863323 9.77046924 -7.1875 11.9609375 C-7.31318359 13.75724609 -7.31318359 13.75724609 -7.44140625 15.58984375 C-7.50199219 16.51667969 -7.56257812 17.44351562 -7.625 18.3984375 C-8.615 18.7284375 -9.605 19.0584375 -10.625 19.3984375 C-10.7059313 16.79364867 -10.76545434 14.19137097 -10.8125 11.5859375 C-10.85020508 10.47895508 -10.85020508 10.47895508 -10.88867188 9.34960938 C-10.96193971 3.95221255 -10.96193971 3.95221255 -9.58325195 1.6862793 C-6.57287699 -0.2934898 -3.48520477 -0.02944377 0 0 Z " fill="#FAC402" transform="translate(14.625,7.6015625)"/>
<path d="M0 0 C0.66 0 1.32 0 2 0 C2.0809723 2.43816585 2.14046972 4.87364384 2.1875 7.3125 C2.21263672 8.00279297 2.23777344 8.69308594 2.26367188 9.40429688 C2.33681044 14.4508577 2.33681044 14.4508577 0.95825195 16.69848633 C-2.04854798 18.69689681 -5.13441892 18.42792669 -8.625 18.3984375 C-9.7399585 18.40274277 -9.7399585 18.40274277 -10.87744141 18.40713501 C-12.4475989 18.40917476 -14.01778186 18.403651 -15.58789062 18.39111328 C-17.99146332 18.37505703 -20.39335461 18.39096352 -22.796875 18.41015625 C-24.32292038 18.4081738 -25.84896471 18.40433009 -27.375 18.3984375 C-28.09381348 18.40451019 -28.81262695 18.41058289 -29.55322266 18.4168396 C-34.51379481 18.3469084 -34.51379481 18.3469084 -36.95825195 16.6027832 C-38.91149967 13.59761065 -38.1711157 10.47935265 -38 7 C-37.01 7.33 -36.02 7.66 -35 8 C-33.8125 11.0625 -33.8125 11.0625 -33 14 C-28.74585377 14.02465622 -24.49174502 14.04283899 -20.23754883 14.05493164 C-18.78929927 14.05997101 -17.34105483 14.06680253 -15.89282227 14.07543945 C-13.81525412 14.08752247 -11.73775303 14.09323211 -9.66015625 14.09765625 C-8.40855713 14.10289307 -7.15695801 14.10812988 -5.86743164 14.11352539 C-3.10267706 14.32887035 -3.10267706 14.32887035 -2 13 C-1.79111292 11.00396794 -1.63224523 9.00257059 -1.5 7 C-1.11111111 1.11111111 -1.11111111 1.11111111 0 0 Z " fill="#FAC401" transform="translate(42,22)"/>
<path d="M0 0 C0.66 0.33 1.32 0.66 2 1 C0.57548686 4.557474 -0.98473742 5.96125728 -4.3125 7.8125 C-5.07175781 8.25207031 -5.83101562 8.69164062 -6.61328125 9.14453125 C-9.61277771 10.21963718 -10.97998978 9.97301241 -14 9 C-15.96876871 8.04085627 -17.90684171 7.0166077 -19.8125 5.9375 C-20.78832031 5.38964844 -21.76414062 4.84179688 -22.76953125 4.27734375 C-23.50558594 3.85582031 -24.24164063 3.43429688 -25 3 C-25 2.34 -25 1.68 -25 1 C-21.53720448 1.41223756 -19.09056334 1.95094486 -16 3.625 C-12.31176175 5.31544253 -10.85086619 5.17883659 -7 4 C-5.7351579 3.31852323 -4.48514634 2.60892754 -3.25 1.875 C-2.1775 1.25625 -1.105 0.6375 0 0 Z " fill="#FAC917" transform="translate(35,18)"/>
<path d="M0 0 C6.8359375 -0.1953125 6.8359375 -0.1953125 9 0 C11 2 11 2 11 5 C9.35 5.66 7.7 6.32 6 7 C4.02 4.69 2.04 2.38 0 0 Z " fill="#FDE778" transform="translate(30,11)"/>
<path d="M0 0 C1.98 0 3.96 0 6 0 C6 1.98 6 3.96 6 6 C3.97945196 4.35830472 1.97956942 2.69088222 0 1 C0 0.67 0 0.34 0 0 Z " fill="#FEEB8B" transform="translate(30,11)"/>
</svg>
