<?xml version="1.0" encoding="UTF-8"?>
<svg version="1.1" xmlns="http://www.w3.org/2000/svg" width="80" height="80">
<path d="M0 0 C7.23106384 5.16683282 12.27669188 11.09624138 14 20 C14.70334365 28.83498334 13.98711976 36.51932036 9 44 C9.99 44.495 9.99 44.495 11 45 C10.67 46.32 10.34 47.64 10 49 C9.01 49 8.02 49 7 49 C6.67 48.34 6.34 47.68 6 47 C5.59910156 47.39832031 5.19820312 47.79664063 4.78515625 48.20703125 C-2.30329446 54.81327443 -9.38743451 56.63724787 -19.01171875 56.34375 C-27.67444611 55.34725326 -34.07369219 51.24110015 -40 45 C-40.51304688 44.30390625 -41.02609375 43.6078125 -41.5546875 42.890625 C-43.36402697 40.52381337 -45.40124705 39.40473132 -48 38 C-47.49396008 35.83125748 -47.00016187 34.00032373 -46 32 C-46.03192298 30.16587942 -46.10013438 28.33231673 -46.1875 26.5 C-46.23224991 17.14726784 -43.19042787 10.44298345 -36.7890625 3.6875 C-26.6574387 -5.86896612 -11.93316255 -6.85051924 0 0 Z " fill="#E4E3F6" transform="translate(56,14)"/>
<path d="M0 0 C5.44407395 2.39033808 8.70896559 6.33461503 11.70703125 11.38671875 C13.59314585 17.04506254 13.61850194 23.12326814 11.20703125 28.63671875 C8.48972368 33.42112101 3.99508 37.3252227 -1.27734375 39.02734375 C-7.58931025 40.15273313 -12.85831177 39.83892577 -18.50390625 36.65625 C-22.79564447 33.61080257 -26.00675324 29.53158081 -27.29296875 24.38671875 C-28.05435479 17.62795348 -27.5523858 11.88160207 -23.29296875 6.38671875 C-16.208703 -0.03952232 -9.5841482 -2.56339228 0 0 Z " fill="#5C587F" transform="translate(47.29296875,20.61328125)"/>
<path d="M0 0 C0.66 0.165 1.32 0.33 2 0.5 C7.41936382 1.4032273 12.65148842 1.3371279 18 0 C19.60411966 4.71799901 20.53664069 8.17055782 19 13 C16.6975129 15.22573753 15.05674488 15.98108504 12 17 C12.33 17.33 12.66 17.66 13 18 C13.04092937 20.33297433 13.04241723 22.66705225 13 25 C10.36 25 7.72 25 5 25 C5 23.68 5 22.36 5 21 C3.35 21 1.7 21 0 21 C0 20.01 0 19.02 0 18 C2.475 18.99 2.475 18.99 5 20 C5.33 19.01 5.66 18.02 6 17 C5.05125 16.566875 4.1025 16.13375 3.125 15.6875 C0 14 0 14 -2 11 C-1.6875 8.125 -1.6875 8.125 -1 5 C-0.814375 4.05125 -0.62875 3.1025 -0.4375 2.125 C-0.293125 1.42375 -0.14875 0.7225 0 0 Z " fill="#F7F5E8" transform="translate(31,30)"/>
<path d="M0 0 C-3.22515763 1.73662334 -6.51329166 2.8905928 -10 4 C-9.01 4.99 -8.02 5.98 -7 7 C-8.32 7 -9.64 7 -11 7 C-12.43197058 14.07960727 -12.43197058 14.07960727 -10.3125 20.5625 C-8.24375831 21.84847457 -6.23933901 23.04028328 -4 24 C-4.66 24.99 -5.32 25.98 -6 27 C-7.65 26.67 -9.3 26.34 -11 26 C-11 26.33 -11 26.66 -11 27 C-9.35 27.33 -7.7 27.66 -6 28 C-5.67 29.65 -5.34 31.3 -5 33 C-9.74973371 32.58090585 -12.86873224 30.47318781 -16 27 C-19.1777951 21.49182183 -19.28522343 17.1798409 -19 11 C-19.33 15.29 -19.66 19.58 -20 24 C-22.44950621 21.55049379 -22.32271254 20.75276979 -22.375 17.375 C-22.26274061 11.40798186 -20.49631546 6.62738692 -16.36328125 2.27734375 C-15.91339844 1.85582031 -15.46351562 1.43429688 -15 1 C-14.34 1.33 -13.68 1.66 -13 2 C-13.99 3.32 -14.98 4.64 -16 6 C-15.52949219 5.65066406 -15.05898438 5.30132812 -14.57421875 4.94140625 C-13.95160156 4.48636719 -13.32898437 4.03132813 -12.6875 3.5625 C-12.07261719 3.11003906 -11.45773438 2.65757813 -10.82421875 2.19140625 C-7.24466472 -0.14641812 -4.15320534 -0.09229345 0 0 Z " fill="#575580" transform="translate(42,23)"/>
<path d="M0 0 C1 3 1 3 0.8125 6.1875 C1.11427256 12.3235421 3.21841088 16.38037353 7.75 20.5 C11.87263539 22.4027548 14.50070716 22.2287776 19 22 C19.33 22.33 19.66 22.66 20 23 C25.60523208 20.68716152 29.30503127 18.7133337 32 13 C32.80220753 8.99581883 33 5.07556403 33 1 C33.66 1 34.32 1 35 1 C37.01529699 13.53962571 37.01529699 13.53962571 33.9921875 18.73046875 C30.45964397 23.22946287 26.53889292 25.83283957 21 27 C14.60641885 27.73309859 9.2107762 26.96103719 4 23 C0.63259269 19.7344883 -1.27371249 17.70068292 -1.5234375 12.94921875 C-1.49981581 11.52798069 -1.4499123 10.10695896 -1.375 8.6875 C-1.36082031 7.95982422 -1.34664062 7.23214844 -1.33203125 6.48242188 C-1.18388962 1.18388962 -1.18388962 1.18388962 0 0 Z " fill="#8C849F" transform="translate(23,33)"/>
<path d="M0 0 C3.05337176 2.23417446 4.68031804 4.61737737 6.5625 7.875 C2.63014531 7.875 1.53285951 6.32554659 -1.4375 3.875 C-6.50535153 2.18571616 -10.79889931 2.21325741 -15.6875 4.1875 C-18.05700443 5.64151408 -20.2759675 7.12914682 -22.4375 8.875 C-22.4375 4.90121451 -21.08996343 3.74850205 -18.4375 0.875 C-12.94329751 -2.57374182 -5.95480422 -1.94884502 0 0 Z " fill="#8B839F" transform="translate(48.4375,21.125)"/>
<path d="M0 0 C1.75 1.625 1.75 1.625 3 3 C-0.10001122 4.80116392 -2.42482097 5.2961501 -6 5.3125 C-6.845625 5.32925781 -7.69125 5.34601562 -8.5625 5.36328125 C-11.45330535 4.93244007 -12.82826275 3.90529726 -15 2 C-4.26183685 -2.74957216 -4.26183685 -2.74957216 0 0 Z " fill="#565E9D" transform="translate(46,25)"/>
<path d="M0 0 C0.66 0.33 1.32 0.66 2 1 C1.2884375 1.8353125 1.2884375 1.8353125 0.5625 2.6875 C-1.12395996 5.18346074 -1.58953107 7.0446237 -2 10 C-2.66 10 -3.32 10 -4 10 C-4.33 14.29 -4.66 18.58 -5 23 C-7.44950621 20.55049379 -7.32271254 19.75276979 -7.375 16.375 C-7.26274061 10.40798186 -5.49631546 5.62738692 -1.36328125 1.27734375 C-0.91339844 0.85582031 -0.46351562 0.43429688 0 0 Z " fill="#705E6A" transform="translate(27,24)"/>
<path d="M0 0 C0.625 2.375 0.625 2.375 1 5 C0.34 5.66 -0.32 6.32 -1 7 C-2.875 6.9375 -2.875 6.9375 -5 6 C-7.25 3.4375 -7.25 3.4375 -9 1 C-5.57367167 -0.61798838 -3.61944899 -1.34053666 0 0 Z " fill="#F1BC17" transform="translate(69,9)"/>
<path d="M0 0 C2.64 0.99 5.28 1.98 8 3 C7.34 4.32 6.68 5.64 6 7 C1.25 6.125 1.25 6.125 -1 5 C-1.33 5.66 -1.66 6.32 -2 7 C-2.33 5.68 -2.66 4.36 -3 3 C-2.01 2.67 -1.02 2.34 0 2 C0 1.34 0 0.68 0 0 Z " fill="#665F7B" transform="translate(30,43)"/>
<path d="M0 0 C2.125 0.375 2.125 0.375 4 1 C4.625 2.875 4.625 2.875 5 5 C4.34 5.66 3.68 6.32 3 7 C0.875 6.625 0.875 6.625 -1 6 C-1.625 4.125 -1.625 4.125 -2 2 C-1.34 1.34 -0.68 0.68 0 0 Z " fill="#FACC5A" transform="translate(10,47)"/>
<path d="M0 0 C1.8125 0.5 1.8125 0.5 4 2 C5.26152609 4.5863924 6.15643045 7.25200829 7 10 C6.01 10 5.02 10 4 10 C3.566875 8.3603125 3.566875 8.3603125 3.125 6.6875 C2.18106796 2.95986155 2.18106796 2.95986155 0 0 Z " fill="#837890" transform="translate(51,24)"/>
<path d="M0 0 C0.33 1.65 0.66 3.3 1 5 C-0.65 4.67 -2.3 4.34 -4 4 C-4.33 3.01 -4.66 2.02 -5 1 C-3 0 -3 0 0 0 Z " fill="#655C75" transform="translate(36,51)"/>
<path d="M0 0 C0.66 0.33 1.32 0.66 2 1 C1.2884375 1.8353125 1.2884375 1.8353125 0.5625 2.6875 C-1.12395996 5.18346074 -1.58953107 7.0446237 -2 10 C-2.66 9.67 -3.32 9.34 -4 9 C-2.25 2.25 -2.25 2.25 0 0 Z " fill="#7F7389" transform="translate(27,24)"/>
<path d="M0 0 C3 0 3 0 5.1875 2 C5.785625 2.66 6.38375 3.32 7 4 C6.67 4.66 6.34 5.32 6 6 C3.37812506 4.95125002 2.20628639 4.35068687 0.75 1.875 C0.5025 1.25625 0.255 0.6375 0 0 Z " fill="#574A62" transform="translate(26,48)"/>
<path d="M0 0 C1.32 0 2.64 0 4 0 C3.67 1.32 3.34 2.64 3 4 C2.01 3.67 1.02 3.34 0 3 C0 2.01 0 1.02 0 0 Z " fill="#8789B8" transform="translate(18,68)"/>
<path d="M0 0 C1.32 0.33 2.64 0.66 4 1 C3.67 1.99 3.34 2.98 3 4 C2.01 4 1.02 4 0 4 C0 2.68 0 1.36 0 0 Z " fill="#8889B7" transform="translate(68,17)"/>
</svg>
