<?xml version="1.0" encoding="UTF-8"?>
<svg version="1.1" xmlns="http://www.w3.org/2000/svg" width="80" height="80">
<path d="M0 0 C7.23106384 5.16683282 12.27669188 11.09624138 14 20 C14.70334365 28.83498334 13.98711976 36.51932036 9 44 C9.99 44.495 9.99 44.495 11 45 C10.67 46.32 10.34 47.64 10 49 C9.01 49 8.02 49 7 49 C6.67 48.34 6.34 47.68 6 47 C5.59910156 47.39832031 5.19820312 47.79664063 4.78515625 48.20703125 C-2.30329446 54.81327443 -9.38743451 56.63724787 -19.01171875 56.34375 C-27.67444611 55.34725326 -34.07369219 51.24110015 -40 45 C-40.51304688 44.30390625 -41.02609375 43.6078125 -41.5546875 42.890625 C-43.36402697 40.52381337 -45.40124705 39.40473132 -48 38 C-47.49396008 35.83125748 -47.00016187 34.00032373 -46 32 C-46.03192298 30.16587942 -46.10013438 28.33231673 -46.1875 26.5 C-46.23224991 17.14726784 -43.19042787 10.44298345 -36.7890625 3.6875 C-26.6574387 -5.86896612 -11.93316255 -6.85051924 0 0 Z " fill="#F6DA9E" transform="translate(56,14)"/>
<path d="M0 0 C0.98267087 3.2342689 1.06072562 6.0183945 0.9140625 9.38671875 C0.87023437 10.40701172 0.82640625 11.42730469 0.78125 12.47851562 C0.7296875 13.53748047 0.678125 14.59644531 0.625 15.6875 C0.58117187 16.75806641 0.53734375 17.82863281 0.4921875 18.93164062 C0.12973941 26.87026059 0.12973941 26.87026059 -1 28 C-2.91458282 28.09971786 -4.83282317 28.13080589 -6.75 28.1328125 C-7.9153125 28.13410156 -9.080625 28.13539062 -10.28125 28.13671875 C-11.5084375 28.13285156 -12.735625 28.12898438 -14 28.125 C-15.84078125 28.13080078 -15.84078125 28.13080078 -17.71875 28.13671875 C-18.8840625 28.13542969 -20.049375 28.13414063 -21.25 28.1328125 C-22.32765625 28.13168457 -23.4053125 28.13055664 -24.515625 28.12939453 C-27 28 -27 28 -28 27 C-28.09971786 25.08541718 -28.13080589 23.16717683 -28.1328125 21.25 C-28.13410156 20.0846875 -28.13539062 18.919375 -28.13671875 17.71875 C-28.13285156 16.4915625 -28.12898438 15.264375 -28.125 14 C-28.12886719 12.7728125 -28.13273437 11.545625 -28.13671875 10.28125 C-28.13542969 9.1159375 -28.13414063 7.950625 -28.1328125 6.75 C-28.13168457 5.67234375 -28.13055664 4.5946875 -28.12939453 3.484375 C-28 1 -28 1 -27 0 C-23.43062119 -0.38443381 -19.83588219 -0.47067089 -16.25 -0.625 C-15.24710938 -0.6765625 -14.24421875 -0.728125 -13.2109375 -0.78125 C-12.23898438 -0.82507813 -11.26703125 -0.86890625 -10.265625 -0.9140625 C-9.37649414 -0.9548291 -8.48736328 -0.9955957 -7.57128906 -1.03759766 C-4.92786626 -0.99894525 -2.57004062 -0.59828881 0 0 Z " fill="#F5F5E9" transform="translate(54,26)"/>
<path d="M0 0 C0.98178223 -0.00430527 0.98178223 -0.00430527 1.98339844 -0.00869751 C3.36524319 -0.01073618 4.74711693 -0.00521996 6.12890625 0.00732422 C8.2428445 0.02338314 10.35487113 0.00747149 12.46875 -0.01171875 C13.81250422 -0.00973628 15.15625724 -0.00589252 16.5 0 C17.72203125 0.00338379 18.9440625 0.00676758 20.203125 0.01025391 C23.25 0.3984375 23.25 0.3984375 25.14697266 1.50146484 C26.82082782 4.38014006 26.6392752 6.83953877 26.6484375 10.1484375 C26.65130768 10.80295898 26.65417786 11.45748047 26.65713501 12.13183594 C26.65917368 13.51368069 26.65365746 14.89555443 26.64111328 16.27734375 C26.62505436 18.391282 26.64096601 20.50330863 26.66015625 22.6171875 C26.65817378 23.96094172 26.65433002 25.30469474 26.6484375 26.6484375 C26.64505371 27.87046875 26.64166992 29.0925 26.63818359 30.3515625 C26.25 33.3984375 26.25 33.3984375 25.14697266 35.29541016 C22.26829744 36.96926532 19.80889873 36.7877127 16.5 36.796875 C15.84547852 36.79974518 15.19095703 36.80261536 14.51660156 36.80557251 C13.13475681 36.80761118 11.75288307 36.80209496 10.37109375 36.78955078 C8.2571555 36.77349186 6.14512887 36.78940351 4.03125 36.80859375 C2.68749578 36.80661128 1.34374276 36.80276752 0 36.796875 C-1.22203125 36.79349121 -2.4440625 36.79010742 -3.703125 36.78662109 C-6.75 36.3984375 -6.75 36.3984375 -8.64697266 35.29541016 C-10.32082782 32.41673494 -10.1392752 29.95733623 -10.1484375 26.6484375 C-10.15130768 25.99391602 -10.15417786 25.33939453 -10.15713501 24.66503906 C-10.15917368 23.28319431 -10.15365746 21.90132057 -10.14111328 20.51953125 C-10.12505436 18.405593 -10.14096601 16.29356637 -10.16015625 14.1796875 C-10.15817378 12.83593328 -10.15433002 11.49218026 -10.1484375 10.1484375 C-10.14505371 8.92640625 -10.14166992 7.704375 -10.13818359 6.4453125 C-9.75 3.3984375 -9.75 3.3984375 -8.64697266 1.50146484 C-5.76829744 -0.17239032 -3.30889873 0.0091623 0 0 Z M11.984375 3.484375 C11.01242188 3.52820313 10.04046875 3.57203125 9.0390625 3.6171875 C8.03617188 3.66875 7.03328125 3.7203125 6 3.7734375 C4.47246094 3.83917969 4.47246094 3.83917969 2.9140625 3.90625 C-1.76807976 3.70513693 -1.76807976 3.70513693 -5.75 5.3984375 C-5.84971786 7.31302032 -5.88080589 9.23126067 -5.8828125 11.1484375 C-5.88410156 12.31375 -5.88539062 13.4790625 -5.88671875 14.6796875 C-5.88285156 15.906875 -5.87898438 17.1340625 -5.875 18.3984375 C-5.87886719 19.625625 -5.88273437 20.8528125 -5.88671875 22.1171875 C-5.88542969 23.2825 -5.88414063 24.4478125 -5.8828125 25.6484375 C-5.88168457 26.72609375 -5.88055664 27.80375 -5.87939453 28.9140625 C-6.03092371 31.34063747 -6.03092371 31.34063747 -4.75 32.3984375 C-2.83541718 32.49815536 -0.91717683 32.52924339 1 32.53125 C2.74796875 32.53318359 2.74796875 32.53318359 4.53125 32.53515625 C6.37203125 32.52935547 6.37203125 32.52935547 8.25 32.5234375 C9.4771875 32.52730469 10.704375 32.53117187 11.96875 32.53515625 C13.1340625 32.53386719 14.299375 32.53257813 15.5 32.53125 C16.57765625 32.53012207 17.6553125 32.52899414 18.765625 32.52783203 C21.19219997 32.67936121 21.19219997 32.67936121 22.25 31.3984375 C22.63453749 27.64092048 22.72052786 23.85914667 22.875 20.0859375 C22.9265625 19.02697266 22.978125 17.96800781 23.03125 16.87695312 C23.07507813 15.85666016 23.11890625 14.83636719 23.1640625 13.78515625 C23.2048291 12.84889404 23.2455957 11.91263184 23.28759766 10.94799805 C23.25259095 8.57413422 22.93716794 6.66011632 22.25 4.3984375 C18.72034365 3.57675637 15.60068637 3.31856732 11.984375 3.484375 Z " fill="#365276" transform="translate(31.75,21.6015625)"/>
<path d="M0 0 C0.98746216 -0.00143509 0.98746216 -0.00143509 1.99487305 -0.00289917 C3.38688248 -0.00357975 4.7788951 -0.00173396 6.17089844 0.00244141 C8.30410883 0.00779146 10.43710867 0.00249238 12.5703125 -0.00390625 C13.92187547 -0.00324545 15.2734383 -0.00196424 16.625 0 C18.47544922 0.00169189 18.47544922 0.00169189 20.36328125 0.00341797 C23.3125 0.1328125 23.3125 0.1328125 25.3125 1.1328125 C25.3125 10.3728125 25.3125 19.6128125 25.3125 29.1328125 C24.3225 29.6278125 24.3225 29.6278125 23.3125 30.1328125 C23.28744385 29.48731445 23.2623877 28.84181641 23.23657227 28.17675781 C23.12035567 25.24525356 22.99774558 22.31405033 22.875 19.3828125 C22.83568359 18.36703125 22.79636719 17.35125 22.75585938 16.3046875 C22.71396484 15.325 22.67207031 14.3453125 22.62890625 13.3359375 C22.59224854 12.43520508 22.55559082 11.53447266 22.51782227 10.60644531 C22.35599075 7.84932149 22.35599075 7.84932149 21.3125 4.1328125 C12.4025 4.1328125 3.4925 4.1328125 -5.6875 4.1328125 C-7.00111698 6.76004646 -6.90003909 8.85891811 -7.00390625 11.796875 C-7.04580078 12.91835938 -7.08769531 14.03984375 -7.13085938 15.1953125 C-7.17017578 16.3709375 -7.20949219 17.5465625 -7.25 18.7578125 C-7.29318359 19.94117187 -7.33636719 21.12453125 -7.38085938 22.34375 C-7.48717426 25.27331578 -7.58920642 28.20296838 -7.6875 31.1328125 C-8.0175 31.1328125 -8.3475 31.1328125 -8.6875 31.1328125 C-8.6875 21.2328125 -8.6875 11.3328125 -8.6875 1.1328125 C-5.78524449 -0.31831526 -3.23838766 0.00296091 0 0 Z " fill="#2C5F94" transform="translate(31.6875,21.8671875)"/>
<path d="M0 0 C0.9583374 0.00523682 1.9166748 0.01047363 2.90405273 0.01586914 C4.45576172 0.02070313 4.45576172 0.02070313 6.03881836 0.02563477 C7.12743164 0.03401367 8.21604492 0.04239258 9.33764648 0.05102539 C10.97636719 0.05779297 10.97636719 0.05779297 12.64819336 0.06469727 C15.35723144 0.07652713 18.06616248 0.09300996 20.77514648 0.11352539 C20.77514648 0.44352539 20.77514648 0.77352539 20.77514648 1.11352539 C9.88514648 1.60852539 9.88514648 1.60852539 -1.22485352 2.11352539 C-1.22485352 10.69352539 -1.22485352 19.27352539 -1.22485352 28.11352539 C7.35514648 28.11352539 15.93514648 28.11352539 24.77514648 28.11352539 C25.10514648 23.49352539 25.43514648 18.87352539 25.77514648 14.11352539 C26.10514648 14.11352539 26.43514648 14.11352539 26.77514648 14.11352539 C27.10514648 18.07352539 27.43514648 22.03352539 27.77514648 26.11352539 C28.10514648 17.53352539 28.43514648 8.95352539 28.77514648 0.11352539 C29.10514648 0.11352539 29.43514648 0.11352539 29.77514648 0.11352539 C29.7998397 4.34936109 29.81800319 8.58515881 29.83007812 12.82104492 C29.83511122 14.26245859 29.84193821 15.70386715 29.85058594 17.14526367 C29.86269632 19.21542624 29.86838496 21.2855214 29.87280273 23.35571289 C29.87803955 24.6020752 29.88327637 25.8484375 29.88867188 27.13256836 C29.77514648 30.11352539 29.77514648 30.11352539 28.77514648 32.11352539 C26.77514648 31.11352539 26.77514648 31.11352539 25.77514648 30.11352539 C23.71392162 30.03807792 21.65014881 30.03042326 19.58764648 30.05102539 C17.70432617 30.06262695 17.70432617 30.06262695 15.78295898 30.07446289 C14.44701603 30.0869116 13.11107836 30.09993964 11.77514648 30.11352539 C9.17093643 30.14000888 6.56697346 30.15998231 3.96264648 30.17602539 C2.80120117 30.18762695 1.63975586 30.19922852 0.44311523 30.21118164 C-2.22485352 30.11352539 -2.22485352 30.11352539 -3.22485352 29.11352539 C-3.32478883 27.05297229 -3.35566257 24.98899949 -3.35766602 22.92602539 C-3.35895508 21.67047852 -3.36024414 20.41493164 -3.36157227 19.12133789 C-3.35947754 18.46423828 -3.35738281 17.80713867 -3.35522461 17.13012695 C-3.34987585 15.12191204 -3.35517043 13.1139208 -3.36157227 11.10571289 C-3.3602832 9.85016602 -3.35899414 8.59461914 -3.35766602 7.30102539 C-3.35597412 5.55885742 -3.35597412 5.55885742 -3.35424805 3.78149414 C-3.17871479 0.16219712 -3.17871479 0.16219712 0 0 Z " fill="#62626D" transform="translate(28.224853515625,24.886474609375)"/>
<path d="M0 0 C1.60875 -0.061875 3.2175 -0.12375 4.875 -0.1875 C5.77992187 -0.22230469 6.68484375 -0.25710937 7.6171875 -0.29296875 C8.79667969 -0.14794922 8.79667969 -0.14794922 10 0 C12.67927341 4.01891012 12.15601248 6.24161923 12 11 C10.68 11 9.36 11 8 11 C7.87625 10.030625 7.7525 9.06125 7.625 8.0625 C7.315625 6.5465625 7.315625 6.5465625 7 5 C6.34 4.67 5.68 4.34 5 4 C5 6.31 5 8.62 5 11 C3.35 11 1.7 11 0 11 C0 7.37 0 3.74 0 0 Z " fill="#595D6D" transform="translate(37,36)"/>
<path d="M0 0 C8.91 0 17.82 0 27 0 C27 0.33 27 0.66 27 1 C26.34926514 1.01458252 25.69853027 1.02916504 25.02807617 1.04418945 C22.08061694 1.11864549 19.13429358 1.21531266 16.1875 1.3125 C15.16333984 1.33505859 14.13917969 1.35761719 13.08398438 1.38085938 C11.60961914 1.4340332 11.60961914 1.4340332 10.10546875 1.48828125 C9.19949951 1.51446533 8.29353027 1.54064941 7.36010742 1.56762695 C4.98406525 1.84489708 4.98406525 1.84489708 3.21289062 3.171875 C1.51222838 5.735192 1.56598724 7.70010269 1.48828125 10.76171875 C1.45283203 11.87998047 1.41738281 12.99824219 1.38085938 14.15039062 C1.35830078 15.31763672 1.33574219 16.48488281 1.3125 17.6875 C1.27833984 18.86634766 1.24417969 20.04519531 1.20898438 21.25976562 C1.12642075 24.17308225 1.05729678 27.08609466 1 30 C0.67 30 0.34 30 0 30 C0 20.1 0 10.2 0 0 Z " fill="#1676CE" transform="translate(23,23)"/>
<path d="M0 0 C0.33 0.99 0.66 1.98 1 3 C0 4 0 4 -2.77563477 4.11352539 C-3.98533936 4.10828857 -5.19504395 4.10305176 -6.44140625 4.09765625 C-7.74658203 4.09443359 -9.05175781 4.09121094 -10.39648438 4.08789062 C-11.7851569 4.07953401 -13.17382877 4.07106905 -14.5625 4.0625 C-15.95507656 4.05748666 -17.34765481 4.05292347 -18.74023438 4.04882812 C-22.1601987 4.03699434 -25.58007844 4.0205088 -29 4 C-28.67 3.34 -28.34 2.68 -28 2 C-26.78098999 1.96241577 -26.78098999 1.96241577 -25.53735352 1.92407227 C-21.87889248 1.80850882 -18.22071472 1.68560416 -14.5625 1.5625 C-13.28310547 1.52318359 -12.00371094 1.48386719 -10.68554688 1.44335938 C-8.86313477 1.38051758 -8.86313477 1.38051758 -7.00390625 1.31640625 C-5.87799072 1.27974854 -4.7520752 1.24309082 -3.59204102 1.20532227 C-1.07146559 1.28781955 -1.07146559 1.28781955 0 0 Z " fill="#1673C8" transform="translate(55,53)"/>
<path d="M0 0 C0.625 2.375 0.625 2.375 1 5 C0.34 5.66 -0.32 6.32 -1 7 C-2.875 6.9375 -2.875 6.9375 -5 6 C-7.25 3.4375 -7.25 3.4375 -9 1 C-5.57367167 -0.61798838 -3.61944899 -1.34053666 0 0 Z " fill="#F1BC17" transform="translate(69,9)"/>
<path d="M0 0 C1.32 0 2.64 0 4 0 C4 3.63 4 7.26 4 11 C2.68 11 1.36 11 0 11 C0 7.37 0 3.74 0 0 Z " fill="#355E8C" transform="translate(32,36)"/>
<path d="M0 0 C0.33 0 0.66 0 1 0 C1 6.6 1 13.2 1 20 C0.34 20.33 -0.32 20.66 -1 21 C-1.22155127 18.06294869 -1.42774197 15.12619637 -1.625 12.1875 C-1.68945312 11.35412109 -1.75390625 10.52074219 -1.8203125 9.66210938 C-1.871875 8.85966797 -1.9234375 8.05722656 -1.9765625 7.23046875 C-2.02893066 6.49207764 -2.08129883 5.75368652 -2.13525391 4.99291992 C-2 3 -2 3 0 0 Z " fill="#1F74C2" transform="translate(56,31)"/>
<path d="M0 0 C1.32 0.33 2.64 0.66 4 1 C4 4.3 4 7.6 4 11 C2.68 11 1.36 11 0 11 C0 7.37 0 3.74 0 0 Z " fill="#3D72A7" transform="translate(37,36)"/>
<path d="M0 0 C2.125 0.375 2.125 0.375 4 1 C4.625 2.875 4.625 2.875 5 5 C4.34 5.66 3.68 6.32 3 7 C0.875 6.625 0.875 6.625 -1 6 C-1.625 4.125 -1.625 4.125 -2 2 C-1.34 1.34 -0.68 0.68 0 0 Z " fill="#FBCC59" transform="translate(10,47)"/>
<path d="M0 0 C3.875 0.875 3.875 0.875 5 2 C5.04092937 4.33297433 5.04241723 6.66705225 5 9 C4.34 9 3.68 9 3 9 C2.690625 7.88625 2.38125 6.7725 2.0625 5.625 C1.17673517 2.2054845 1.17673517 2.2054845 0 0 Z " fill="#1378D3" transform="translate(43,37)"/>
<path d="M0 0 C1.32 0 2.64 0 4 0 C3.67 1.32 3.34 2.64 3 4 C2.01 3.67 1.02 3.34 0 3 C0 2.01 0 1.02 0 0 Z " fill="#EE3D52" transform="translate(18,68)"/>
<path d="M0 0 C0.99 0 1.98 0 3 0 C3 1.32 3 2.64 3 4 C1.68 3.67 0.36 3.34 -1 3 C-0.67 2.01 -0.34 1.02 0 0 Z " fill="#ED3D54" transform="translate(9,21)"/>
<path d="M0 0 C1.32 0.33 2.64 0.66 4 1 C3.67 1.99 3.34 2.98 3 4 C2.01 4 1.02 4 0 4 C0 2.68 0 1.36 0 0 Z " fill="#ED3D52" transform="translate(68,17)"/>
</svg>
