<?xml version="1.0" encoding="UTF-8"?>
<svg version="1.1" xmlns="http://www.w3.org/2000/svg" width="48" height="48">
<path d="M0 0 C4.91084135 2.28003348 7.47820794 5.236615 10 10 C12.02974815 17.03646026 10.05317215 23.23487055 6.63671875 29.5 C3.97866468 33.67596092 1.36292576 37.49131769 -3 40 C-6.99742696 40.76546474 -8.53913697 40.28803939 -12 38.125 C-17.07904715 33.46138942 -21.6284927 26.22056653 -22.23828125 19.29296875 C-22.49079755 8.72715531 -22.49079755 8.72715531 -18 4 C-12.72867143 -1.00776214 -6.89190982 -0.92775709 0 0 Z " fill="#FCCB74" transform="translate(30,4)"/>
<path d="M0 0 C4.91084135 2.28003348 7.47820794 5.236615 10 10 C12.02974815 17.03646026 10.05317215 23.23487055 6.63671875 29.5 C3.97866468 33.67596092 1.36292576 37.49131769 -3 40 C-6.99742696 40.76546474 -8.53913697 40.28803939 -12 38.125 C-17.07904715 33.46138942 -21.6284927 26.22056653 -22.23828125 19.29296875 C-22.49079755 8.72715531 -22.49079755 8.72715531 -18 4 C-12.72867143 -1.00776214 -6.89190982 -0.92775709 0 0 Z M-17 8 C-19.81682764 13.14377221 -19.38703764 19.26644234 -19 25 C-18.67 25.99 -18.34 26.98 -18 28 C-17.34 28 -16.68 28 -16 28 C-15.731875 28.969375 -15.46375 29.93875 -15.1875 30.9375 C-14.795625 31.948125 -14.40375 32.95875 -14 34 C-13.01 34.33 -12.02 34.66 -11 35 C-10.34 35.99 -9.68 36.98 -9 38 C-5.58461856 38.58369443 -5.58461856 38.58369443 -2 38 C3.81488018 33.15052464 7.46062059 25.90510689 8.48828125 18.46484375 C8.73523033 12.36313619 8.73523033 12.36313619 6.71484375 6.75 C3.38113622 3.34794767 0.38065144 2.67534805 -4.3125 2.5625 C-9.8031046 2.67260571 -13.3190209 3.85614329 -17 8 Z " fill="#FDEBB6" transform="translate(30,4)"/>
<path d="M0 0 C2.0625 0.4375 2.0625 0.4375 4 1 C5.22051278 7.35254845 5.28368821 12.28163802 2 18 C-0.5625 20.875 -0.5625 20.875 -3 23 C-3.66 23.66 -4.32 24.32 -5 25 C-8.8427201 24.69662736 -11.18933582 23.6041664 -14 21 C-14.828125 18.51953125 -14.828125 18.51953125 -15.25 15.8125 C-15.39953125 14.91144531 -15.5490625 14.01039062 -15.703125 13.08203125 C-15.80109375 12.39496094 -15.8990625 11.70789062 -16 11 C-12.83888272 10.39788242 -9.97580312 10.00046532 -6.75 10.0625 C-3.85289148 10.31346333 -3.85289148 10.31346333 -2 8 C-1.63239269 5.67182036 -1.29758419 3.3381615 -1 1 C-0.67 0.67 -0.34 0.34 0 0 Z " fill="#FD4A43" transform="translate(31,15)"/>
<path d="M0 0 C2.30955971 1.5218783 3.47447961 2.8163873 4.85546875 5.22265625 C6.5982239 14.20163385 4.17576154 20.83272018 -0.3203125 28.54296875 C-3.11760507 32.65205376 -3.11760507 32.65205376 -5.14453125 34.22265625 C-8.70703125 34.59765625 -8.70703125 34.59765625 -12.14453125 34.22265625 C-12.80453125 33.23265625 -13.46453125 32.24265625 -14.14453125 31.22265625 C-15.13453125 30.89265625 -16.12453125 30.56265625 -17.14453125 30.22265625 C-18.33203125 27.16015625 -18.33203125 27.16015625 -19.14453125 24.22265625 C-18.15453125 24.88265625 -17.16453125 25.54265625 -16.14453125 26.22265625 C-16.14453125 26.88265625 -16.14453125 27.54265625 -16.14453125 28.22265625 C-13.17766124 29.87091736 -10.488266 30.66536712 -7.14453125 31.22265625 C-6.36078125 30.23265625 -5.57703125 29.24265625 -4.76953125 28.22265625 C-3.90328125 27.23265625 -3.03703125 26.24265625 -2.14453125 25.22265625 C-1.48453125 25.22265625 -0.82453125 25.22265625 -0.14453125 25.22265625 C-0.02078125 24.56265625 0.10296875 23.90265625 0.23046875 23.22265625 C0.72021271 20.87188526 1.29157032 18.59972066 1.91796875 16.28515625 C3.44141406 10.21786243 3.44141406 10.21786243 1.85546875 4.34765625 C-1.39665327 2.51833761 -4.56843727 2.61815638 -8.14453125 3.22265625 C-10.33719787 4.12391246 -12.33688405 5.15246884 -14.3828125 6.34765625 C-16.14453125 7.22265625 -16.14453125 7.22265625 -19.14453125 7.22265625 C-19.47453125 8.21265625 -19.80453125 9.20265625 -20.14453125 10.22265625 C-21.14453125 8.22265625 -21.14453125 8.22265625 -20.88671875 6.26953125 C-19.8343644 3.36724873 -17.89525003 1.89368855 -15.3828125 0.203125 C-10.63174774 -1.87805695 -4.85294222 -1.75908106 0 0 Z " fill="#FCCF7F" transform="translate(33.14453125,7.77734375)"/>
<path d="M0 0 C2.0625 0.4375 2.0625 0.4375 4 1 C4.375 4.1875 4.375 4.1875 4 8 C0.65671251 11.42103836 -2.89133652 13.57694205 -7 16 C-8.68477344 17.31037934 -10.35648543 18.63823078 -12 20 C-14.52259061 18.02579865 -14.9929808 17.03254358 -15.6875 13.8125 C-15.790625 12.884375 -15.89375 11.95625 -16 11 C-12.83888272 10.39788242 -9.97580312 10.00046532 -6.75 10.0625 C-3.85289148 10.31346333 -3.85289148 10.31346333 -2 8 C-1.63239269 5.67182036 -1.29758419 3.3381615 -1 1 C-0.67 0.67 -0.34 0.34 0 0 Z " fill="#FE6327" transform="translate(31,15)"/>
<path d="M0 0 C6.46153846 0.46153846 6.46153846 0.46153846 9 3 C9.33015665 6.10347254 9.50531294 8.15781176 7.875 10.875 C5.11909116 12.52854531 3.14924548 12.39365568 0 12 C-1.9375 10.9375 -1.9375 10.9375 -3 9 C-2.66666667 2.66666667 -2.66666667 2.66666667 0 0 Z " fill="#FDD4A1" transform="translate(21,14)"/>
<path d="M0 0 C0.33 0 0.66 0 1 0 C2.20834664 9.57087262 -0.74300446 16.07510737 -6 24 C-8.34293411 26.87707453 -8.6404123 26.96214866 -12.5625 27.375 C-13.696875 27.25125 -14.83125 27.1275 -16 27 C-16.66 26.01 -17.32 25.02 -18 24 C-18.99 23.67 -19.98 23.34 -21 23 C-22.1875 19.9375 -22.1875 19.9375 -23 17 C-21.515 17.99 -21.515 17.99 -20 19 C-20 19.66 -20 20.32 -20 21 C-17.03312999 22.64826111 -14.34373475 23.44271087 -11 24 C-10.21625 23.01 -9.4325 22.02 -8.625 21 C-7.75875 20.01 -6.8925 19.02 -6 18 C-5.34 18 -4.68 18 -4 18 C-3.80083984 16.97326172 -3.80083984 16.97326172 -3.59765625 15.92578125 C-2.93174657 12.66587046 -2.19043388 9.4283893 -1.4375 6.1875 C-1.16808594 5.02605469 -0.89867188 3.86460938 -0.62109375 2.66796875 C-0.41613281 1.78753906 -0.21117188 0.90710937 0 0 Z " fill="#FD8589" transform="translate(37,15)"/>
<path d="M0 0 C0.33 0 0.66 0 1 0 C1.33 4.62 1.66 9.24 2 14 C2.66 14 3.32 14 4 14 C6 17 6 17 6 20 C6.639375 20.12375 7.27875 20.2475 7.9375 20.375 C8.618125 20.58125 9.29875 20.7875 10 21 C10.33 21.66 10.66 22.32 11 23 C13.32156597 23.40729228 15.6568787 23.74438677 18 24 C17.67 24.66 17.34 25.32 17 26 C13.12346234 26.46149258 11.35045571 26.21903482 8 24.125 C3.39262524 19.88232509 -1.10635396 13.29382141 -2 7 C-1.411438 4.645752 -0.75407101 2.30657014 0 0 Z " fill="#FEBDB6" transform="translate(10,18)"/>
<path d="M0 0 C3 0.5 3 0.5 5.375 2.125 C7.4131192 5.1037896 7.32152515 6.96322336 7 10.5 C6.01 10.995 6.01 10.995 5 11.5 C4.67 9.85 4.34 8.2 4 6.5 C3.29875 6.726875 2.5975 6.95375 1.875 7.1875 C-1.87700275 7.59532639 -3.79431057 6.36377293 -7 4.5 C-4.73943528 1.7177665 -3.5944274 0.59907123 0 0 Z " fill="#FDB85F" transform="translate(30,9.5)"/>
<path d="M0 0 C3.96 0 7.92 0 12 0 C12 0.33 12 0.66 12 1 C8.04 1 4.08 1 0 1 C0 0.67 0 0.34 0 0 Z M-2 1 C-1.34 1.33 -0.68 1.66 0 2 C-1.28062485 3.7074998 -2.61767557 5.37373596 -4 7 C-4.66 7 -5.32 7 -6 7 C-7.56901859 13.98533796 -7.56901859 13.98533796 -9 21 C-9.33 21 -9.66 21 -10 21 C-10.62460568 11.24921136 -10.62460568 11.24921136 -8.25 6.5 C-6.2795863 4.31065145 -4.47128449 2.58868289 -2 1 Z " fill="#FDF0C9" transform="translate(18,4)"/>
<path d="M0 0 C2.98027146 3.33851381 2.98027146 3.33851381 3.06640625 6.2265625 C1.39332664 14.18990268 -1.95952232 21.39227296 -8 27 C-8.66 26.67 -9.32 26.34 -10 26 C-9.56945312 25.6184375 -9.13890625 25.236875 -8.6953125 24.84375 C-2.35315307 17.94628629 -0.03599644 9.14309487 0 0 Z " fill="#FEB4AE" transform="translate(38,15)"/>
<path d="M0 0 C3.625 0.375 3.625 0.375 7 1 C7 1.99 7 2.98 7 4 C5.35 4.33 3.7 4.66 2 5 C1.67 6.65 1.34 8.3 1 10 C0.01 10 -0.98 10 -2 10 C-2.33 9.67 -2.66 9.34 -3 9 C-2.4 2.4 -2.4 2.4 0 0 Z " fill="#FCEAC2" transform="translate(21,14)"/>
<path d="M0 0 C0.66 2.31 1.32 4.62 2 7 C0.35 7.33 -1.3 7.66 -3 8 C-2.34 10.64 -1.68 13.28 -1 16 C-3.46235259 14.23018408 -4.83710915 12.86770703 -5.40625 9.8359375 C-5.49948227 7.45074531 -5.45723289 5.34387348 -5 3 C-2.18181818 0 -2.18181818 0 0 0 Z " fill="#FE9E42" transform="translate(18,18)"/>
<path d="M0 0 C0.33 0.66 0.66 1.32 1 2 C0.26394531 2.03738281 -0.47210937 2.07476562 -1.23046875 2.11328125 C-8.57560617 2.58975994 -8.57560617 2.58975994 -15 6 C-15.66 6 -16.32 6 -17 6 C-17.33 7.65 -17.66 9.3 -18 11 C-19 9 -19 9 -18.7421875 7.046875 C-17.69188693 4.15025658 -15.75001613 2.67668116 -13.25390625 0.97265625 C-9.00351562 -0.86156778 -4.53141796 -0.36874106 0 0 Z " fill="#FCE194" transform="translate(31,7)"/>
<path d="M0 0 C2 2 2 2 2.125 5.125 C2.08375 6.07375 2.0425 7.0225 2 8 C1.67 8 1.34 8 1 8 C0.67 6.35 0.34 4.7 0 3 C-1.65 3.33 -3.3 3.66 -5 4 C-5.66 2.68 -6.32 1.36 -7 0 C-4.29393021 -1.35303489 -2.8671629 -0.7884698 0 0 Z " fill="#FDA03E" transform="translate(34,13)"/>
<path d="M0 0 C2.0625 0.4375 2.0625 0.4375 4 1 C3.67 2.65 3.34 4.3 3 6 C1.68 6.33 0.36 6.66 -1 7 C-1.04254356 5.00045254 -1.04080783 2.99958364 -1 1 C-0.67 0.67 -0.34 0.34 0 0 Z " fill="#FE831F" transform="translate(31,15)"/>
<path d="M0 0 C-1.375 2 -1.375 2 -3 4 C-3.66 4 -4.32 4 -5 4 C-5.33 4.66 -5.66 5.32 -6 6 C-6.33 4.02 -6.66 2.04 -7 0 C-4.3333581 -1.33332095 -2.83319697 -0.67102033 0 0 Z " fill="#FE8620" transform="translate(22,26)"/>
<path d="M0 0 C2.0625 0.4375 2.0625 0.4375 4 1 C3.1875 2.9375 3.1875 2.9375 2 5 C1.01 5.33 0.02 5.66 -1 6 C-1.66 5.67 -2.32 5.34 -3 5 C-1.125 1.125 -1.125 1.125 0 0 Z " fill="#FEC692" transform="translate(26,20)"/>
<path d="M0 0 C0.66 0.33 1.32 0.66 2 1 C-1.515625 5.6875 -1.515625 5.6875 -3 7 C-4.32 7 -5.64 7 -7 7 C-5.66667905 3.00003714 -3.5042173 2.16217663 0 0 Z " fill="#FC283D" transform="translate(29,31)"/>
<path d="M0 0 C1 2 1 2 0.375 4.75 C-1.25172204 8.59497936 -3.2108368 10.91724067 -6 14 C-6.66 13.67 -7.32 13.34 -8 13 C-7.56042969 12.61199219 -7.12085937 12.22398438 -6.66796875 11.82421875 C-4.6807411 9.65083395 -3.58630548 7.46339249 -2.3125 4.8125 C-1.87550781 3.91144531 -1.43851563 3.01039062 -0.98828125 2.08203125 C-0.66214844 1.39496094 -0.33601563 0.70789063 0 0 Z " fill="#FEA5B2" transform="translate(36,28)"/>
<path d="M0 0 C0.33 1.32 0.66 2.64 1 4 C0.01 4.66 -0.98 5.32 -2 6 C-2.73343428 9.06556598 -2.73343428 9.06556598 -3 12 C-3.33 12 -3.66 12 -4 12 C-4.22893297 8.96663814 -4.36475845 6.02534949 -4 3 C-2 0.9375 -2 0.9375 0 0 Z " fill="#FDB552" transform="translate(17,18)"/>
<path d="M0 0 C3.54998486 0.86777408 5.52079186 1.38859651 7.8125 4.3125 C8.95885324 6.90687839 9.59993133 9.19951933 10 12 C9.01 12.495 9.01 12.495 8 13 C7.71125 11.9275 7.4225 10.855 7.125 9.75 C5.97757004 5.66497293 5.97757004 5.66497293 4 2 C1.94999129 1.19471111 1.94999129 1.19471111 0 1 C0 0.67 0 0.34 0 0 Z " fill="#FED5B0" transform="translate(31,7)"/>
<path d="M0 0 C-1.09758507 0.84198307 -2.20335317 1.67330671 -3.3125 2.5 C-3.92738281 2.9640625 -4.54226562 3.428125 -5.17578125 3.90625 C-7 5 -7 5 -10 5 C-10 4.34 -10 3.68 -10 3 C-3.375 -1.125 -3.375 -1.125 0 0 Z " fill="#FBDE7E" transform="translate(24,10)"/>
<path d="M0 0 C0.33 0 0.66 0 1 0 C1.05399736 1.45792884 1.09279177 2.91642712 1.125 4.375 C1.14820313 5.18710937 1.17140625 5.99921875 1.1953125 6.8359375 C1 9 1 9 -1 11 C-2.60080151 6.99799622 -1.29279692 3.95443764 0 0 Z " fill="#FEDCAB" transform="translate(10,18)"/>
</svg>
