<?xml version="1.0" encoding="UTF-8"?>
<svg version="1.1" xmlns="http://www.w3.org/2000/svg" width="48" height="48">
<path d="M0 0 C0.98484375 -0.00128906 1.9696875 -0.00257812 2.984375 -0.00390625 C4.02078125 -0.00003906 5.0571875 0.00382813 6.125 0.0078125 C7.67960937 0.00201172 7.67960937 0.00201172 9.265625 -0.00390625 C10.25046875 -0.00261719 11.2353125 -0.00132813 12.25 0 C13.16007812 0.00112793 14.07015625 0.00225586 15.0078125 0.00341797 C17.125 0.1328125 17.125 0.1328125 18.125 1.1328125 C18.22603255 3.93274847 18.26470088 6.70749894 18.2578125 9.5078125 C18.25924759 10.76730713 18.25924759 10.76730713 18.26071167 12.05224609 C18.26139348 13.83105545 18.25953917 15.60986727 18.25537109 17.38867188 C18.25002283 20.12115026 18.25531605 22.85346426 18.26171875 25.5859375 C18.26105797 27.3098962 18.25977681 29.03385479 18.2578125 30.7578125 C18.25983673 31.58071777 18.26186096 32.40362305 18.26394653 33.25146484 C18.23995054 39.01786196 18.23995054 39.01786196 17.125 40.1328125 C15.50242456 40.2319782 13.87560169 40.26361027 12.25 40.265625 C11.26515625 40.26691406 10.2803125 40.26820312 9.265625 40.26953125 C8.22921875 40.26566406 7.1928125 40.26179688 6.125 40.2578125 C4.57039063 40.26361328 4.57039063 40.26361328 2.984375 40.26953125 C1.99953125 40.26824219 1.0146875 40.26695313 0 40.265625 C-0.91007812 40.26449707 -1.82015625 40.26336914 -2.7578125 40.26220703 C-4.875 40.1328125 -4.875 40.1328125 -5.875 39.1328125 C-5.97603255 36.33287653 -6.01470088 33.55812606 -6.0078125 30.7578125 C-6.00876923 29.91814941 -6.00972595 29.07848633 -6.01071167 28.21337891 C-6.01139348 26.43456955 -6.00953917 24.65575773 -6.00537109 22.87695312 C-6.00002283 20.14447474 -6.00531605 17.41216074 -6.01171875 14.6796875 C-6.01105797 12.9557288 -6.00977681 11.23177021 -6.0078125 9.5078125 C-6.00983673 8.68490723 -6.01186096 7.86200195 -6.01394653 7.01416016 C-5.98478903 0.00741741 -5.98478903 0.00741741 0 0 Z " fill="#FEF2DF" transform="translate(17.875,3.8671875)"/>
<path d="M0 0 C0.98484375 -0.00128906 1.9696875 -0.00257812 2.984375 -0.00390625 C4.02078125 -0.00003906 5.0571875 0.00382813 6.125 0.0078125 C7.67960937 0.00201172 7.67960937 0.00201172 9.265625 -0.00390625 C10.25046875 -0.00261719 11.2353125 -0.00132813 12.25 0 C13.16007812 0.00112793 14.07015625 0.00225586 15.0078125 0.00341797 C17.125 0.1328125 17.125 0.1328125 18.125 1.1328125 C18.22603255 3.93274847 18.26470088 6.70749894 18.2578125 9.5078125 C18.25924759 10.76730713 18.25924759 10.76730713 18.26071167 12.05224609 C18.26139348 13.83105545 18.25953917 15.60986727 18.25537109 17.38867188 C18.25002283 20.12115026 18.25531605 22.85346426 18.26171875 25.5859375 C18.26105797 27.3098962 18.25977681 29.03385479 18.2578125 30.7578125 C18.25983673 31.58071777 18.26186096 32.40362305 18.26394653 33.25146484 C18.23995054 39.01786196 18.23995054 39.01786196 17.125 40.1328125 C15.50242456 40.2319782 13.87560169 40.26361027 12.25 40.265625 C11.26515625 40.26691406 10.2803125 40.26820312 9.265625 40.26953125 C8.22921875 40.26566406 7.1928125 40.26179688 6.125 40.2578125 C4.57039063 40.26361328 4.57039063 40.26361328 2.984375 40.26953125 C1.99953125 40.26824219 1.0146875 40.26695313 0 40.265625 C-0.91007812 40.26449707 -1.82015625 40.26336914 -2.7578125 40.26220703 C-4.875 40.1328125 -4.875 40.1328125 -5.875 39.1328125 C-5.97603255 36.33287653 -6.01470088 33.55812606 -6.0078125 30.7578125 C-6.00876923 29.91814941 -6.00972595 29.07848633 -6.01071167 28.21337891 C-6.01139348 26.43456955 -6.00953917 24.65575773 -6.00537109 22.87695312 C-6.00002283 20.14447474 -6.00531605 17.41216074 -6.01171875 14.6796875 C-6.01105797 12.9557288 -6.00977681 11.23177021 -6.0078125 9.5078125 C-6.00983673 8.68490723 -6.01186096 7.86200195 -6.01394653 7.01416016 C-5.98478903 0.00741741 -5.98478903 0.00741741 0 0 Z M-2.875 3.1328125 C-2.875 13.3628125 -2.875 23.5928125 -2.875 34.1328125 C3.065 34.1328125 9.005 34.1328125 15.125 34.1328125 C15.125 23.9028125 15.125 13.6728125 15.125 3.1328125 C9.185 3.1328125 3.245 3.1328125 -2.875 3.1328125 Z " fill="#E18838" transform="translate(17.875,3.8671875)"/>
</svg>
